<svg width="152" height="18" viewBox="0 0 152 18" fill="none" xmlns="http://www.w3.org/2000/svg">
<path d="M-6.85453e-06 17.6932V0.23863H7.21022C8.51704 0.23863 9.64488 0.474426 10.5937 0.946017C11.5483 1.41193 12.2841 2.08238 12.8011 2.95738C13.3182 3.8267 13.5767 4.85795 13.5767 6.05113C13.5767 7.26136 13.3125 8.28977 12.7841 9.13636C12.2557 9.97727 11.5057 10.6193 10.5341 11.0625C9.56249 11.5 8.41193 11.7187 7.08238 11.7187H2.52272V8.39488H6.29829C6.93465 8.39488 7.4659 8.31249 7.89204 8.14772C8.32386 7.97727 8.65056 7.72159 8.87215 7.38068C9.09374 7.03409 9.20454 6.5909 9.20454 6.05113C9.20454 5.51136 9.09374 5.06533 8.87215 4.71306C8.65056 4.35511 8.32386 4.08806 7.89204 3.91193C7.46022 3.73011 6.92897 3.6392 6.29829 3.6392H4.21874V17.6932H-6.85453e-06ZM9.8267 9.7159L14.1733 17.6932H9.57102L5.30965 9.7159H9.8267ZM15.4106 0.23863H20.6351L25.0669 11.0454H25.2714L29.7032 0.23863H34.9277V17.6932H30.8197V6.97159H30.6748L26.4816 17.5824H23.8566L19.6635 6.91193H19.5186V17.6932H15.4106V0.23863ZM40.8546 17.6932H36.3205L42.2097 0.23863H47.8262L53.7154 17.6932H49.1813L45.0819 4.63636H44.9455L40.8546 17.6932ZM40.2495 10.8239H49.7268V14.0284H40.2495V10.8239ZM59.7909 17.6932V0.23863H67.0012C68.308 0.23863 69.4358 0.494312 70.3847 1.00568C71.3392 1.51136 72.075 2.21874 72.5921 3.12783C73.1091 4.03124 73.3676 5.08238 73.3676 6.28124C73.3676 7.48579 73.1034 8.53977 72.575 9.44318C72.0523 10.3409 71.3051 11.0369 70.3335 11.5312C69.362 12.0256 68.2085 12.2727 66.8733 12.2727H62.4245V8.94886H66.0892C66.7256 8.94886 67.2568 8.83806 67.683 8.61647C68.1148 8.39488 68.4415 8.08522 68.6631 7.68749C68.8847 7.28408 68.9955 6.81533 68.9955 6.28124C68.9955 5.74147 68.8847 5.27556 68.6631 4.88352C68.4415 4.48579 68.1148 4.17897 67.683 3.96306C67.2512 3.74715 66.7199 3.6392 66.0892 3.6392H64.0097V17.6932H59.7909ZM91.4416 8.9659C91.4416 10.8864 91.0723 12.5142 90.3337 13.8494C89.595 15.1847 88.595 16.1989 87.3337 16.892C86.078 17.5852 84.6689 17.9318 83.1064 17.9318C81.5382 17.9318 80.1263 17.5824 78.8706 16.8835C77.6149 16.1847 76.6177 15.1704 75.8791 13.8409C75.1462 12.5057 74.7797 10.8807 74.7797 8.9659C74.7797 7.04545 75.1462 5.41761 75.8791 4.08238C76.6177 2.74715 77.6149 1.73295 78.8706 1.03977C80.1263 0.346585 81.5382 -6.19888e-06 83.1064 -6.19888e-06C84.6689 -6.19888e-06 86.078 0.346585 87.3337 1.03977C88.595 1.73295 89.595 2.74715 90.3337 4.08238C91.0723 5.41761 91.4416 7.04545 91.4416 8.9659ZM87.1291 8.9659C87.1291 7.82954 86.9672 6.86931 86.6433 6.08522C86.3251 5.30113 85.8649 4.70738 85.2626 4.30397C84.666 3.90056 83.9473 3.69886 83.1064 3.69886C82.2712 3.69886 81.5524 3.90056 80.9501 4.30397C80.3479 4.70738 79.8848 5.30113 79.5609 6.08522C79.2427 6.86931 79.0837 7.82954 79.0837 8.9659C79.0837 10.1023 79.2427 11.0625 79.5609 11.8466C79.8848 12.6307 80.3479 13.2244 80.9501 13.6278C81.5524 14.0312 82.2712 14.2329 83.1064 14.2329C83.9473 14.2329 84.666 14.0312 85.2626 13.6278C85.8649 13.2244 86.3251 12.6307 86.6433 11.8466C86.9672 11.0625 87.1291 10.1023 87.1291 8.9659ZM93.4247 17.6932V0.23863H100.635C101.942 0.23863 103.07 0.474426 104.018 0.946017C104.973 1.41193 105.709 2.08238 106.226 2.95738C106.743 3.8267 107.001 4.85795 107.001 6.05113C107.001 7.26136 106.737 8.28977 106.209 9.13636C105.68 9.97727 104.93 10.6193 103.959 11.0625C102.987 11.5 101.837 11.7187 100.507 11.7187H95.9474V8.39488H99.723C100.359 8.39488 100.891 8.31249 101.317 8.14772C101.749 7.97727 102.075 7.72159 102.297 7.38068C102.518 7.03409 102.629 6.5909 102.629 6.05113C102.629 5.51136 102.518 5.06533 102.297 4.71306C102.075 4.35511 101.749 4.08806 101.317 3.91193C100.885 3.73011 100.354 3.6392 99.723 3.6392H97.6434V17.6932H93.4247ZM103.251 9.7159L107.598 17.6932H102.996L98.7343 9.7159H103.251ZM108.264 3.66477V0.23863H123.017V3.66477H117.725V17.6932H113.565V3.66477H108.264ZM126.193 17.6932H121.659L127.548 0.23863H133.165L139.054 17.6932H134.52L130.421 4.63636H130.284L126.193 17.6932ZM125.588 10.8239H135.066V14.0284H125.588V10.8239ZM140.453 17.6932V0.23863H144.672V14.267H151.934V17.6932H140.453Z" fill="#B6F500"/>
</svg>
